# Blender 3.6.4
# www.blender.org
mtllib Handpainted_Cherry.mtl
o Handpainted_Cherry
v -0.316211 0.198996 0.045589
v -0.316211 0.198996 -0.045589
v -0.225033 0.198996 0.045589
v -0.225033 0.198996 -0.045589
v -0.424447 0.135695 0.153825
v -0.424447 0.135695 -0.153825
v -0.116796 0.135695 -0.153825
v -0.116796 0.135695 0.153825
v -0.365114 0.197728 0.094493
v -0.365114 0.197728 -0.094493
v -0.176129 0.197728 -0.094493
v -0.176129 0.197728 0.094493
v -0.288244 0.170967 0.017622
v -0.288244 0.170967 -0.017622
v -0.252999 0.170967 -0.017622
v -0.252999 0.170967 0.017622
v -0.462117 0.001761 0.191495
v -0.462117 0.001761 -0.191495
v -0.079127 0.001761 -0.191495
v -0.079127 0.001761 0.191495
v -0.316211 -0.195473 0.045589
v -0.316211 -0.195473 -0.045589
v -0.225033 -0.195473 0.045589
v -0.225033 -0.195473 -0.045589
v -0.424447 -0.132173 0.153825
v -0.424447 -0.132173 -0.153825
v -0.116796 -0.132173 -0.153825
v -0.116796 -0.132173 0.153825
v -0.365114 -0.194206 0.094493
v -0.365114 -0.194206 -0.094493
v -0.176129 -0.194206 -0.094493
v -0.176129 -0.194206 0.094493
v -0.288244 -0.167444 0.017622
v -0.288244 -0.167444 -0.017622
v -0.252999 -0.167444 -0.017622
v -0.252999 -0.167444 0.017622
v 0.225989 0.198996 0.045589
v 0.225989 0.198996 -0.045589
v 0.317167 0.198996 0.045589
v 0.317167 0.198996 -0.045589
v 0.117753 0.135695 0.153825
v 0.117753 0.135695 -0.153825
v 0.425403 0.135695 -0.153825
v 0.425403 0.135695 0.153825
v 0.177085 0.197728 0.094493
v 0.177085 0.197728 -0.094493
v 0.366071 0.197728 -0.094493
v 0.366071 0.197728 0.094493
v 0.253956 0.170967 0.017622
v 0.253956 0.170967 -0.017622
v 0.289201 0.170967 -0.017622
v 0.289201 0.170967 0.017622
v 0.080083 0.001761 0.191495
v 0.080083 0.001761 -0.191495
v 0.463073 0.001761 -0.191495
v 0.463073 0.001761 0.191495
v 0.225989 -0.195473 0.045589
v 0.225989 -0.195473 -0.045589
v 0.317167 -0.195473 0.045589
v 0.317167 -0.195473 -0.045589
v 0.117753 -0.132173 0.153825
v 0.117753 -0.132173 -0.153825
v 0.425403 -0.132173 -0.153825
v 0.425403 -0.132173 0.153825
v 0.177085 -0.194206 0.094493
v 0.177085 -0.194206 -0.094493
v 0.366071 -0.194206 -0.094493
v 0.366071 -0.194206 0.094493
v 0.253956 -0.167444 0.017622
v 0.253956 -0.167444 -0.017622
v 0.289201 -0.167444 -0.017622
v 0.289201 -0.167444 0.017622
v 0.007248 0.646934 0.025748
v 0.039276 0.780543 0.022961
v 0.007248 0.646934 -0.029989
v 0.039276 0.780543 -0.027202
v 0.141283 0.643861 0.025782
v 0.150141 0.780543 0.022961
v 0.141283 0.643861 -0.029955
v 0.150141 0.780543 -0.027202
v 0.072407 0.634010 -0.032504
v 0.094709 0.781640 -0.029989
v 0.072407 0.634010 0.028300
v 0.094709 0.781640 0.025748
v -0.308941 0.153705 -0.027202
v -0.308941 0.153705 0.022961
v -0.271986 0.153705 -0.027202
v -0.271986 0.153705 0.022961
v 0.282367 0.159847 0.023972
v 0.282367 0.159847 -0.026191
v 0.245413 0.159847 0.023972
v 0.245413 0.159847 -0.026191
v 0.178950 0.507889 0.026028
v 0.178950 0.507889 -0.029708
v 0.129677 0.507889 -0.029708
v 0.129677 0.507889 0.026028
v -0.059834 0.519144 0.025748
v -0.010561 0.519144 0.025748
v -0.010561 0.519144 -0.029989
v -0.059834 0.519144 -0.029989
v 0.252695 0.259880 0.026543
v 0.203421 0.259880 0.026543
v 0.252695 0.259880 -0.029194
v 0.203421 0.259880 -0.029194
v -0.252815 0.257789 0.025748
v -0.203541 0.257789 0.025748
v -0.203541 0.257789 -0.029989
v -0.252815 0.257789 -0.029989
v 0.028779 0.750420 0.025748
v 0.028779 0.750420 -0.029989
v 0.151961 0.750420 -0.029989
v 0.151961 0.750420 0.025748
v 0.090370 0.750420 0.031322
v 0.090370 0.750420 -0.035562
v -0.005070 0.646934 -0.002120
v 0.033117 0.781640 -0.002120
v 0.153601 0.643861 -0.002087
v 0.156300 0.781640 -0.002120
v 0.094709 0.783835 -0.002120
v 0.071177 0.609896 -0.002087
v -0.317420 0.147301 -0.002120
v -0.268147 0.147301 -0.002120
v 0.291460 0.153435 -0.001095
v 0.242187 0.153435 -0.001095
v 0.117359 0.507889 -0.001840
v 0.191269 0.507889 -0.001840
v -0.072152 0.519144 -0.002120
v 0.001758 0.519144 -0.002120
v 0.191103 0.259880 -0.001326
v 0.265013 0.259880 -0.001326
v -0.265133 0.257789 -0.002120
v -0.191223 0.257789 -0.002120
v 0.164280 0.750420 -0.002120
v 0.016460 0.750420 -0.002120
v -0.394558 0.176061 0.123936
v -0.400549 0.197728 -0.000000
v -0.270622 0.197728 -0.129928
v -0.140694 0.197728 0.000000
v -0.270622 0.197728 0.129928
v -0.450602 0.074599 0.179980
v -0.394558 0.176061 -0.123936
v -0.146686 0.176061 -0.123936
v -0.146686 0.176061 0.123936
v -0.270622 0.135695 0.211510
v -0.059112 0.135695 0.000000
v -0.270622 0.135695 -0.211510
v -0.482131 0.135695 -0.000000
v -0.333307 0.198996 0.000000
v -0.270622 0.198996 -0.062685
v -0.207937 0.198996 0.000000
v -0.270622 0.198996 0.062685
v -0.338448 0.204843 0.067826
v -0.338447 0.204843 -0.067826
v -0.202796 0.204843 -0.067826
v -0.202796 0.204843 0.067826
v -0.290709 0.168335 0.000000
v -0.270622 0.168335 -0.020087
v -0.250534 0.168335 -0.000000
v -0.270622 0.168335 0.020087
v -0.241814 0.183498 0.028807
v -0.299429 0.183498 0.028807
v -0.241814 0.183498 -0.028807
v -0.299429 0.183498 -0.028807
v -0.450602 0.074599 -0.179980
v -0.090642 0.074599 -0.179980
v -0.090642 0.074599 0.179980
v -0.533927 0.001761 -0.000000
v -0.270622 0.001761 -0.263306
v -0.007316 0.001761 -0.000000
v -0.270622 0.001761 0.263306
v -0.394558 -0.172539 0.123936
v -0.400549 -0.194206 0.000000
v -0.270622 -0.194206 -0.129928
v -0.140694 -0.194206 -0.000000
v -0.270622 -0.194206 0.129928
v -0.450602 -0.071077 0.179980
v -0.394558 -0.172539 -0.123936
v -0.146686 -0.172539 -0.123936
v -0.146686 -0.172539 0.123936
v -0.270622 -0.132173 0.211510
v -0.059112 -0.132173 0.000000
v -0.270622 -0.132173 -0.211510
v -0.482131 -0.132173 -0.000000
v -0.333307 -0.195473 0.000000
v -0.270622 -0.195473 -0.062685
v -0.207937 -0.195473 -0.000000
v -0.270622 -0.195473 0.062685
v -0.338447 -0.201321 0.067826
v -0.338447 -0.201321 -0.067826
v -0.202796 -0.201321 -0.067826
v -0.202796 -0.201321 0.067826
v -0.290709 -0.164812 -0.000000
v -0.270622 -0.164812 -0.020087
v -0.250534 -0.164812 0.000000
v -0.270622 -0.164812 0.020087
v -0.241815 -0.179976 0.028807
v -0.299429 -0.179976 0.028807
v -0.241814 -0.179976 -0.028807
v -0.299429 -0.179976 -0.028807
v -0.450602 -0.071077 -0.179980
v -0.090642 -0.071077 -0.179980
v -0.090642 -0.071077 0.179980
v 0.147642 0.176061 0.123936
v 0.141651 0.197728 -0.000000
v 0.271578 0.197728 -0.129928
v 0.401506 0.197728 0.000000
v 0.271578 0.197728 0.129928
v 0.091598 0.074599 0.179980
v 0.147642 0.176061 -0.123936
v 0.395514 0.176061 -0.123936
v 0.395514 0.176061 0.123936
v 0.271578 0.135695 0.211510
v 0.483088 0.135695 0.000000
v 0.271578 0.135695 -0.211510
v 0.060068 0.135695 -0.000000
v 0.208893 0.198996 0.000000
v 0.271578 0.198996 -0.062685
v 0.334263 0.198996 0.000000
v 0.271578 0.198996 0.062685
v 0.203752 0.204843 0.067826
v 0.203752 0.204843 -0.067826
v 0.339404 0.204843 -0.067826
v 0.339404 0.204843 0.067826
v 0.251491 0.168335 0.000000
v 0.271578 0.168335 -0.020087
v 0.291665 0.168335 -0.000000
v 0.271578 0.168335 0.020087
v 0.300385 0.183498 0.028807
v 0.242771 0.183498 0.028807
v 0.300385 0.183498 -0.028807
v 0.242771 0.183498 -0.028807
v 0.091598 0.074599 -0.179980
v 0.451558 0.074599 -0.179980
v 0.451558 0.074599 0.179980
v 0.008272 0.001761 -0.000000
v 0.271578 0.001761 -0.263306
v 0.534884 0.001761 -0.000000
v 0.271578 0.001761 0.263306
v 0.147642 -0.172539 0.123936
v 0.141651 -0.194206 0.000000
v 0.271578 -0.194206 -0.129928
v 0.401506 -0.194206 -0.000000
v 0.271578 -0.194206 0.129928
v 0.091598 -0.071077 0.179980
v 0.147642 -0.172539 -0.123936
v 0.395514 -0.172539 -0.123936
v 0.395514 -0.172539 0.123936
v 0.271578 -0.132173 0.211510
v 0.483088 -0.132173 0.000000
v 0.271578 -0.132173 -0.211510
v 0.060068 -0.132173 -0.000000
v 0.208893 -0.195473 0.000000
v 0.271578 -0.195473 -0.062685
v 0.334263 -0.195473 -0.000000
v 0.271578 -0.195473 0.062685
v 0.203752 -0.201321 0.067826
v 0.203752 -0.201321 -0.067826
v 0.339404 -0.201321 -0.067826
v 0.339404 -0.201321 0.067826
v 0.251491 -0.164812 -0.000000
v 0.271578 -0.164812 -0.020087
v 0.291665 -0.164812 0.000000
v 0.271578 -0.164812 0.020087
v 0.300385 -0.179976 0.028807
v 0.242771 -0.179976 0.028807
v 0.300385 -0.179976 -0.028807
v 0.242771 -0.179976 -0.028807
v 0.091598 -0.071077 -0.179980
v 0.451558 -0.071077 -0.179980
v 0.451558 -0.071077 0.179980
v -0.003530 0.646934 0.013904
v 0.033630 0.774304 0.025271
v 0.034172 0.781452 -0.017783
v 0.019579 0.702175 -0.029989
v 0.033408 0.645888 -0.034542
v 0.129325 0.781452 -0.029511
v 0.144119 0.701791 -0.029984
v 0.152062 0.643861 -0.018111
v 0.155245 0.781452 0.013543
v 0.144119 0.701791 0.025752
v 0.114699 0.643072 0.030334
v 0.060092 0.781452 0.025271
v 0.114699 0.643071 -0.034511
v 0.060092 0.781452 -0.029511
v 0.033408 0.645888 0.030304
v 0.129325 0.781452 0.025271
v 0.094709 0.783561 0.013904
v 0.071222 0.611937 0.014194
v 0.081636 0.701065 0.031117
v 0.081636 0.701065 -0.035354
v -0.315968 0.148398 0.013543
v -0.291989 0.149495 -0.029034
v -0.291989 0.149495 0.024793
v -0.268805 0.148398 0.013543
v -0.301027 0.181155 0.025271
v 0.039934 0.595027 0.026008
v 0.039934 0.595027 -0.030245
v -0.010654 0.596844 -0.029989
v 0.289902 0.154533 -0.016761
v 0.265818 0.155632 0.025814
v 0.265818 0.155632 -0.028014
v 0.242739 0.154533 0.014565
v 0.276379 0.186809 0.026221
v 0.152752 0.588140 -0.029874
v 0.101611 0.586642 -0.030134
v 0.229216 0.186809 0.026221
v 0.152752 0.588140 0.025863
v 0.216126 0.383220 -0.029450
v 0.166853 0.383220 -0.029450
v 0.101611 0.586642 0.026119
v 0.118899 0.507889 0.014184
v 0.154314 0.507889 0.030209
v 0.154314 0.507889 -0.033888
v 0.189729 0.507889 -0.017864
v -0.010654 0.596844 0.025748
v -0.106876 0.388948 0.025748
v -0.106876 0.388948 -0.029989
v -0.156150 0.388949 -0.029989
v -0.070612 0.519144 0.013904
v -0.035197 0.519144 -0.034169
v 0.000218 0.519144 -0.018145
v -0.035197 0.519144 0.029928
v 0.216126 0.383220 0.026287
v 0.166853 0.383220 0.026287
v 0.276379 0.186809 -0.028561
v 0.229216 0.186809 -0.028561
v 0.192643 0.259880 0.014699
v 0.228058 0.259880 0.030723
v 0.228058 0.259880 -0.033374
v 0.263473 0.259880 -0.017350
v -0.156150 0.388948 0.025748
v -0.253864 0.181155 0.025271
v -0.253864 0.181155 -0.029511
v -0.301027 0.181155 -0.029511
v -0.263593 0.257789 0.013904
v -0.228178 0.257789 -0.034169
v -0.192763 0.257789 -0.018145
v -0.228178 0.257789 0.029928
v 0.019579 0.702175 0.025748
v 0.033630 0.774304 -0.029511
v 0.154703 0.774304 -0.029511
v 0.154703 0.774304 0.025271
v 0.094166 0.774446 0.030625
v 0.094166 0.774446 -0.034866
v 0.054955 0.750420 -0.034866
v 0.125785 0.750420 0.030625
v 0.054955 0.750420 0.030625
v 0.162740 0.750420 0.013904
v 0.125785 0.750420 -0.034866
v 0.018000 0.750420 -0.018145
v -0.003530 0.646934 -0.018145
v 0.034172 0.781452 0.013543
v 0.152062 0.643861 0.013938
v 0.155245 0.781452 -0.017783
v 0.094709 0.783561 -0.018145
v 0.071222 0.611937 -0.018371
v -0.315968 0.148398 -0.017783
v -0.268805 0.148398 -0.017783
v 0.289902 0.154533 0.014566
v 0.242739 0.154533 -0.016761
v 0.118899 0.507889 -0.017864
v 0.189729 0.507889 0.014184
v -0.070612 0.519144 -0.018145
v 0.000218 0.519144 0.013904
v 0.192643 0.259880 -0.017350
v 0.263473 0.259880 0.014699
v -0.263593 0.257789 -0.018145
v -0.192763 0.257789 0.013904
v 0.162740 0.750420 -0.018145
v 0.018000 0.750420 0.013904
v 0.007261 0.702175 -0.002120
v 0.156437 0.701791 -0.002116
v -0.094558 0.388949 -0.002120
v -0.168468 0.388949 -0.002120
v 0.228445 0.383220 -0.001581
v 0.154535 0.383220 -0.001581
v 0.051229 0.592215 -0.002116
v -0.022973 0.596844 -0.002120
v 0.165071 0.588140 -0.002006
v 0.090096 0.583894 -0.002006
v 0.217763 0.185978 -0.001168
v 0.271223 0.143816 -0.001073
v -0.313161 0.180324 -0.002120
v -0.242331 0.180324 -0.002120
v -0.296265 0.137695 -0.002120
v 0.130124 0.783561 -0.002120
v 0.059294 0.783561 -0.002120
v 0.288593 0.185978 -0.001168
v 0.166536 0.774446 -0.002120
v 0.021796 0.774446 -0.002120
v -0.441034 0.176061 0.000000
v -0.270622 0.176061 -0.170412
v -0.100210 0.176061 -0.000000
v -0.270622 0.176061 0.170412
v -0.270622 0.183239 0.039335
v -0.270622 0.074599 0.247472
v -0.023149 0.074599 -0.000000
v -0.270622 0.074599 -0.247472
v -0.518094 0.074599 0.000000
v -0.363882 0.204843 -0.000000
v -0.270622 0.204843 -0.093260
v -0.177361 0.204843 -0.000000
v -0.270622 0.204843 0.093260
v -0.270622 0.162811 -0.000000
v -0.231287 0.183239 -0.000000
v -0.270622 0.183239 -0.039335
v -0.309957 0.183239 -0.000000
v -0.441034 -0.172539 0.000000
v -0.270622 -0.172539 -0.170412
v -0.100210 -0.172539 -0.000000
v -0.270622 -0.172539 0.170412
v -0.270622 -0.179716 0.039335
v -0.270622 -0.071077 0.247472
v -0.023149 -0.071077 0.000000
v -0.270622 -0.071077 -0.247472
v -0.518094 -0.071077 -0.000000
v -0.363882 -0.201321 -0.000000
v -0.270622 -0.201321 -0.093260
v -0.177361 -0.201321 -0.000000
v -0.270622 -0.201321 0.093260
v -0.270622 -0.159288 0.000000
v -0.231287 -0.179716 0.000000
v -0.270622 -0.179716 -0.039335
v -0.309957 -0.179716 -0.000000
v 0.101166 0.176061 0.000000
v 0.271578 0.176061 -0.170412
v 0.441990 0.176061 -0.000000
v 0.271578 0.176061 0.170412
v 0.271578 0.183239 0.039335
v 0.271578 0.074599 0.247472
v 0.519051 0.074599 -0.000000
v 0.271578 0.074599 -0.247472
v 0.024106 0.074599 0.000000
v 0.178318 0.204843 -0.000000
v 0.271578 0.204843 -0.093260
v 0.364839 0.204843 -0.000000
v 0.271578 0.204843 0.093260
v 0.271578 0.162811 -0.000000
v 0.310913 0.183239 -0.000000
v 0.271578 0.183239 -0.039335
v 0.232243 0.183239 -0.000000
v 0.101166 -0.172539 0.000000
v 0.271578 -0.172539 -0.170412
v 0.441990 -0.172539 -0.000000
v 0.271578 -0.172539 0.170412
v 0.271578 -0.179716 0.039335
v 0.271578 -0.071077 0.247472
v 0.519051 -0.071077 0.000000
v 0.271578 -0.071077 -0.247472
v 0.024106 -0.071077 -0.000000
v 0.178318 -0.201321 -0.000000
v 0.271578 -0.201321 -0.093260
v 0.364839 -0.201321 -0.000000
v 0.271578 -0.201321 0.093260
v 0.271578 -0.159288 0.000000
v 0.310913 -0.179716 0.000000
v 0.271578 -0.179716 -0.039335
v 0.232243 -0.179716 -0.000000
v 0.023279 0.774410 -0.018054
v 0.129382 0.774410 -0.034195
v 0.165053 0.774410 0.013814
v 0.058951 0.774410 0.029954
v 0.287015 0.186185 0.014765
v 0.059493 0.783296 0.013814
v 0.129924 0.783296 0.013814
v -0.277596 0.180739 0.029283
v 0.129382 0.774410 0.029954
v 0.058951 0.774410 -0.034195
v -0.295728 0.139178 0.013723
v -0.243739 0.180532 0.013814
v -0.277596 0.180739 -0.033524
v -0.311603 0.180532 -0.018054
v 0.270544 0.145301 0.014767
v 0.252988 0.186393 -0.032572
v 0.252988 0.186393 0.030235
v 0.219151 0.186185 -0.017102
v 0.091391 0.584404 -0.018095
v 0.127693 0.587942 0.030107
v 0.127693 0.587942 -0.034119
v 0.163531 0.588140 0.014019
v -0.021433 0.596844 -0.018145
v 0.014299 0.596583 -0.034233
v 0.049957 0.592725 0.013972
v 0.014299 0.596583 0.029993
v 0.156075 0.383220 -0.017606
v 0.191490 0.383220 0.030467
v 0.191490 0.383220 -0.033630
v 0.226905 0.383220 0.014443
v -0.166928 0.388948 -0.018145
v -0.131513 0.388948 -0.034169
v -0.096098 0.388948 0.013904
v -0.131513 0.388948 0.029928
v 0.045816 0.701914 -0.034814
v 0.117776 0.701594 0.030577
v 0.045816 0.701914 0.030574
v 0.154897 0.701791 0.013908
v 0.117776 0.701594 -0.034810
v 0.008801 0.702175 -0.018145
v 0.008801 0.702175 0.013904
v 0.154897 0.701791 -0.018140
v -0.096098 0.388949 -0.018145
v -0.166928 0.388949 0.013904
v 0.226905 0.383220 -0.017606
v 0.156075 0.383220 0.014443
v 0.049957 0.592725 -0.018205
v -0.021433 0.596844 0.013904
v 0.163531 0.588140 -0.018030
v 0.091391 0.584404 0.014083
v 0.219151 0.186185 0.014765
v 0.270544 0.145301 -0.016920
v -0.311603 0.180532 0.013814
v -0.243739 0.180532 -0.018054
v -0.295727 0.139178 -0.017964
v 0.129924 0.783296 -0.018054
v 0.059493 0.783296 -0.018054
v 0.287015 0.186185 -0.017102
v 0.165053 0.774410 -0.018054
v 0.023279 0.774410 0.013814
vn -0.5606 0.6094 0.5606
vn -0.4284 0.7956 0.4284
vn -0.6124 0.7905 -0.0000
vn -0.7987 0.6017 -0.0000
vn -0.2555 0.9324 0.2555
vn -0.3644 0.9312 -0.0000
vn -0.2555 0.9324 -0.2555
vn -0.4284 0.7956 -0.4284
vn -0.5606 0.6094 -0.5606
vn -0.0000 0.7905 -0.6124
vn -0.0000 0.6017 -0.7987
vn -0.0000 0.9312 -0.3644
vn 0.2555 0.9324 -0.2555
vn 0.4284 0.7956 -0.4284
vn 0.5606 0.6094 -0.5606
vn 0.6124 0.7905 -0.0000
vn 0.7987 0.6017 -0.0000
vn 0.3644 0.9312 -0.0000
vn 0.2555 0.9324 0.2555
vn 0.4284 0.7956 0.4284
vn 0.5606 0.6094 0.5606
vn -0.0000 0.7905 0.6124
vn -0.0000 0.6017 0.7987
vn -0.0000 0.9312 0.3644
vn 0.2298 0.9457 -0.2298
vn -0.0000 0.9403 -0.3404
vn -0.0000 0.8107 -0.5854
vn 0.4040 0.8208 -0.4040
vn -0.2298 0.9457 -0.2298
vn -0.4040 0.8208 -0.4040
vn -0.3702 0.8520 -0.3702
vn -0.0000 0.8968 -0.4425
vn 0.3702 0.8520 -0.3702
vn 0.7071 -0.0000 0.7071
vn 0.6600 0.3589 0.6600
vn -0.0000 0.3529 0.9357
vn -0.0000 -0.0000 1.0000
vn -0.6600 0.3589 0.6600
vn -0.7071 -0.0000 0.7071
vn 0.7071 -0.0000 -0.7071
vn 0.6600 0.3589 -0.6600
vn 0.9357 0.3529 -0.0000
vn 1.0000 -0.0000 -0.0000
vn -0.7071 -0.0000 -0.7071
vn -0.6600 0.3589 -0.6600
vn -0.0000 0.3529 -0.9357
vn -0.0000 -0.0000 -1.0000
vn -0.9357 0.3529 -0.0000
vn -1.0000 -0.0000 -0.0000
vn 0.3404 0.9403 -0.0000
vn -0.0445 0.9990 -0.0000
vn -0.0362 0.9987 0.0362
vn 0.2298 0.9457 0.2298
vn -0.0362 0.9987 -0.0362
vn -0.0000 0.9403 0.3404
vn -0.0000 0.9990 -0.0445
vn -0.2298 0.9457 0.2298
vn 0.0362 0.9987 -0.0362
vn -0.3404 0.9403 -0.0000
vn 0.0445 0.9990 -0.0000
vn 0.0362 0.9987 0.0362
vn -0.0000 0.9990 0.0445
vn -0.3702 0.8520 0.3702
vn -0.0000 0.8968 0.4425
vn -0.0000 1.0000 -0.0000
vn -0.4425 0.8968 -0.0000
vn 0.3702 0.8520 0.3702
vn 0.4425 0.8968 -0.0000
vn -0.5854 0.8107 -0.0000
vn -0.4040 0.8208 0.4040
vn -0.0000 0.8107 0.5854
vn 0.4040 0.8208 0.4040
vn 0.5854 0.8107 -0.0000
vn -0.5606 -0.6094 0.5606
vn -0.7987 -0.6017 -0.0000
vn -0.6124 -0.7905 -0.0000
vn -0.4284 -0.7956 0.4284
vn -0.5606 -0.6094 -0.5606
vn -0.4284 -0.7956 -0.4284
vn -0.2555 -0.9324 -0.2555
vn -0.3644 -0.9312 -0.0000
vn -0.2555 -0.9324 0.2555
vn -0.0000 -0.6017 -0.7987
vn -0.0000 -0.7905 -0.6124
vn 0.5606 -0.6094 -0.5606
vn 0.4284 -0.7956 -0.4284
vn 0.2555 -0.9324 -0.2555
vn -0.0000 -0.9312 -0.3644
vn 0.7987 -0.6017 -0.0000
vn 0.6124 -0.7905 -0.0000
vn 0.5606 -0.6094 0.5606
vn 0.4284 -0.7956 0.4284
vn 0.2555 -0.9324 0.2555
vn 0.3644 -0.9312 -0.0000
vn -0.0000 -0.6017 0.7987
vn -0.0000 -0.7905 0.6124
vn -0.0000 -0.9312 0.3644
vn 0.2298 -0.9457 -0.2298
vn 0.4040 -0.8208 -0.4040
vn -0.0000 -0.8107 -0.5854
vn -0.0000 -0.9403 -0.3405
vn 0.3702 -0.8520 -0.3702
vn -0.0000 -0.8968 -0.4425
vn -0.3702 -0.8520 -0.3702
vn -0.4040 -0.8208 -0.4040
vn -0.2298 -0.9457 -0.2298
vn -0.0000 -0.3529 0.9357
vn 0.6600 -0.3589 0.6600
vn -0.6600 -0.3589 0.6600
vn 0.9357 -0.3529 -0.0000
vn 0.6600 -0.3589 -0.6600
vn -0.0000 -0.3529 -0.9357
vn -0.6600 -0.3589 -0.6600
vn -0.9357 -0.3529 -0.0000
vn -0.0362 -0.9987 0.0362
vn -0.0445 -0.9990 -0.0000
vn 0.3404 -0.9403 -0.0000
vn -0.0362 -0.9987 -0.0362
vn 0.2298 -0.9457 0.2298
vn -0.0000 -0.9990 -0.0445
vn -0.0000 -0.9403 0.3405
vn 0.0362 -0.9987 -0.0362
vn -0.2298 -0.9457 0.2298
vn 0.0445 -0.9990 -0.0000
vn -0.3405 -0.9403 -0.0000
vn 0.0362 -0.9987 0.0362
vn -0.0000 -0.9990 0.0445
vn -0.3702 -0.8520 0.3702
vn -0.4425 -0.8968 -0.0000
vn -0.0000 -1.0000 -0.0000
vn -0.0000 -0.8968 0.4425
vn 0.4425 -0.8968 -0.0000
vn 0.3702 -0.8520 0.3702
vn -0.5854 -0.8107 -0.0000
vn -0.4040 -0.8208 0.4040
vn -0.0000 -0.8107 0.5854
vn 0.4040 -0.8208 0.4040
vn 0.5854 -0.8107 -0.0000
vn 0.3405 -0.9403 -0.0000
vn -0.9795 0.2015 -0.0000
vn -0.8268 0.5625 -0.0000
vn -0.7884 0.5146 -0.3371
vn -0.8985 0.1848 -0.3982
vn -0.3246 0.9459 -0.0000
vn -0.3451 0.9205 -0.1831
vn -0.2339 0.8149 -0.5303
vn -0.4590 0.4005 -0.7930
vn -0.4825 0.1036 -0.8698
vn -0.0000 0.0130 -0.9999
vn 0.0007 0.3043 -0.9526
vn 0.0965 0.2776 -0.9558
vn 0.1009 -0.0027 -0.9949
vn 0.0003 0.8409 -0.5412
vn 0.0629 0.8291 -0.5555
vn 0.2516 0.8048 -0.5376
vn 0.5018 0.3075 -0.8085
vn 0.4879 -0.0584 -0.8710
vn 0.9919 -0.1267 -0.0000
vn 0.9138 0.4063 -0.0000
vn 0.8628 0.3658 0.3490
vn 0.9091 -0.1158 0.4001
vn 0.3476 0.9376 -0.0000
vn 0.3700 0.9088 0.1928
vn 0.2516 0.8048 0.5376
vn 0.5018 0.3075 0.8085
vn 0.4879 -0.0584 0.8710
vn -0.0000 0.0130 0.9999
vn 0.0007 0.3043 0.9526
vn -0.0899 0.2969 0.9507
vn -0.0999 0.0306 0.9945
vn 0.0003 0.8409 0.5412
vn -0.0597 0.8327 0.5504
vn -0.2339 0.8149 0.5303
vn -0.4590 0.4005 0.7930
vn -0.4825 0.1036 0.8698
vn 0.9557 0.2944 -0.0000
vn 0.8784 0.2714 0.3934
vn 0.9055 0.1847 0.3820
vn 0.9807 0.1955 -0.0000
vn 0.4689 0.1439 0.8714
vn 0.4836 0.0839 0.8712
vn 0.4794 -0.2529 0.8404
vn 0.7879 -0.4551 0.4149
vn 0.8666 -0.4991 0.0001
vn -0.0406 0.9992 -0.0000
vn -0.0393 0.9955 0.0858
vn -0.0000 0.9961 0.0886
vn -0.3451 0.9205 0.1831
vn 0.0406 0.9992 -0.0000
vn 0.0393 0.9955 0.0858
vn 0.0629 0.8291 0.5555
vn 0.4366 -0.3040 0.8467
vn -0.0032 0.0010 1.0000
vn -0.0096 -0.0589 0.9982
vn 0.4380 -0.3291 0.8366
vn -0.4467 0.3045 0.8413
vn -0.4911 0.1763 0.8531
vn -0.4960 -0.2396 0.8346
vn -0.0112 -0.4987 0.8667
vn 0.3634 -0.5022 0.7847
vn 0.0965 0.2776 0.9558
vn 0.1009 -0.0027 0.9949
vn -0.0899 0.2969 -0.9507
vn -0.0999 0.0306 -0.9945
vn -0.0597 0.8327 -0.5504
vn -0.8717 -0.4900 -0.0000
vn -0.0553 -0.9985 -0.0000
vn -0.0529 -0.9263 0.3730
vn -0.7949 -0.4482 0.4088
vn 0.5790 -0.8153 -0.0000
vn 0.5436 -0.7701 0.3337
vn 0.8196 -0.5730 -0.0000
vn 0.7658 -0.5374 0.3532
vn 0.7647 -0.5439 0.3455
vn 0.8126 -0.5828 -0.0000
vn -0.4467 0.3045 -0.8413
vn -0.0032 0.0010 -1.0000
vn -0.0096 -0.0589 -0.9982
vn -0.4911 0.1763 -0.8531
vn 0.4366 -0.3040 -0.8467
vn 0.4380 -0.3291 -0.8366
vn 0.3634 -0.5022 -0.7847
vn -0.0112 -0.4987 -0.8667
vn -0.4960 -0.2396 -0.8346
vn -0.8287 0.5596 -0.0000
vn -0.7768 0.5224 -0.3516
vn -0.8808 0.3121 -0.3560
vn -0.9436 0.3310 -0.0000
vn -0.7949 -0.4482 -0.4088
vn -0.5827 -0.8127 -0.0000
vn 0.0705 -0.9975 0.0001
vn 0.0670 -0.9238 0.3771
vn -0.5484 -0.7689 0.3287
vn 0.0075 -0.5004 0.8657
vn -0.3760 -0.4983 0.7812
vn -0.4738 -0.1594 -0.8661
vn -0.0019 -0.0078 -1.0000
vn -0.0002 -0.0734 -0.9973
vn -0.4723 -0.2744 -0.8377
vn 0.4692 0.1403 -0.8719
vn 0.4839 0.0802 -0.8715
vn 0.4794 -0.2558 -0.8395
vn 0.0075 -0.5031 -0.8642
vn -0.3755 -0.5008 -0.7798
vn -0.0020 -0.0037 1.0000
vn -0.0002 -0.0692 0.9976
vn -0.4742 -0.1559 0.8665
vn -0.4728 -0.2712 0.8384
vn -0.9503 -0.3112 -0.0000
vn -0.8757 -0.2868 -0.3884
vn -0.8282 -0.4344 -0.3540
vn -0.8817 -0.4718 -0.0000
vn -0.5480 -0.7695 -0.3280
vn -0.1098 -0.9940 -0.0000
vn -0.0791 -0.7821 -0.6182
vn -0.8078 -0.4299 -0.4033
vn -0.8829 -0.4695 -0.0000
vn -0.0085 -0.1585 -0.9873
vn -0.4017 -0.2042 -0.8927
vn -0.4631 -0.1529 -0.8730
vn -0.8731 -0.2890 -0.3927
vn -0.9499 -0.3125 -0.0000
vn 0.4603 0.0344 0.8871
vn 0.0534 -0.0157 0.9984
vn 0.0178 -0.0068 0.9998
vn 0.4644 0.1232 0.8770
vn -0.0096 -0.1575 0.9875
vn -0.4028 -0.2010 0.8929
vn -0.4634 -0.1493 0.8735
vn 0.0035 0.0027 1.0000
vn 0.4724 0.1498 0.8685
vn 0.0539 -0.0175 -0.9984
vn 0.0181 -0.0104 -0.9998
vn 0.4604 0.0326 -0.8871
vn 0.4646 0.1201 -0.8773
vn 0.4727 0.1463 -0.8690
vn 0.0036 -0.0014 -1.0000
vn 0.9970 0.0776 -0.0000
vn 0.9076 0.0720 0.4137
vn 0.8854 0.2378 0.3994
vn 0.9664 0.2572 -0.0000
vn 0.8782 0.2745 0.3916
vn 0.9546 0.2979 -0.0000
vn -0.9604 0.2788 -0.0000
vn -0.8805 0.2572 -0.3982
vn -0.8274 0.4123 -0.3812
vn -0.8975 0.4410 -0.0000
vn -0.4645 0.1316 -0.8758
vn -0.4439 0.2119 -0.8707
vn -0.4376 0.2972 -0.8487
vn -0.7696 0.5311 -0.3545
vn -0.8243 0.5662 -0.0000
vn -0.0582 -0.0048 -0.9983
vn -0.0114 -0.0141 -0.9998
vn 0.3750 -0.2961 -0.8785
vn 0.4377 -0.3105 -0.8438
vn 0.0020 -0.0057 -1.0000
vn -0.0808 -0.7817 0.6184
vn 0.6994 -0.5984 0.3908
vn 0.7518 -0.6594 -0.0000
vn 0.3746 -0.2962 0.8786
vn 0.4376 -0.3105 0.8438
vn 0.7645 -0.5380 0.3551
vn 0.8167 -0.5771 -0.0000
vn -0.0585 -0.0047 0.9983
vn -0.0116 -0.0141 0.9998
vn -0.4645 0.1316 0.8757
vn -0.4439 0.2119 0.8706
vn -0.4376 0.2972 0.8487
vn 0.0020 -0.0057 1.0000
vn -0.8809 -0.2628 -0.3936
vn -0.9585 -0.2850 -0.0000
vn -0.4713 -0.1419 -0.8705
vn 0.0001 0.0021 1.0000
vn 0.4715 0.1420 0.8703
vn -0.4716 -0.1384 0.8709
vn 0.0001 -0.0020 -1.0000
vn 0.4718 0.1385 -0.8707
vn 0.8810 0.2627 0.3935
vn 0.9585 0.2850 -0.0000
vn -0.7545 0.5570 -0.3471
vn -0.8045 0.5940 -0.0000
vn -0.4365 0.3224 -0.8400
vn -0.0001 0.0002 -1.0000
vn 0.4363 -0.3221 -0.8402
vn 0.7544 -0.5571 0.3472
vn 0.8044 -0.5940 -0.0000
vn 0.4363 -0.3221 0.8402
vn -0.0001 0.0002 1.0000
vn -0.4365 0.3224 0.8400
vn -0.4782 0.0976 -0.8728
vn -0.0885 0.0096 -0.9960
vn -0.0017 -0.0141 -0.9999
vn 0.4749 -0.0500 0.8786
vn 0.0871 -0.0165 0.9961
vn -0.0020 -0.0137 0.9999
vn -0.0887 0.0098 0.9960
vn -0.4782 0.0976 0.8728
vn 0.9945 -0.1046 -0.0000
vn 0.9081 -0.0959 0.4077
vn 0.0873 -0.0170 -0.9960
vn 0.4749 -0.0505 -0.8786
vn -0.9792 0.2028 -0.0000
vn -0.8972 0.1861 -0.4005
vn -0.8972 0.1861 0.4005
vn -0.8805 0.2572 0.3982
vn -0.8985 0.1848 0.3982
vn 0.9080 -0.0961 -0.4077
vn 0.9075 0.0712 -0.4139
vn 0.9091 -0.1158 -0.4001
vn 0.7645 -0.5380 -0.3551
vn 0.7544 -0.5571 -0.3472
vn 0.7658 -0.5374 -0.3532
vn -0.7696 0.5311 0.3545
vn -0.7545 0.5570 0.3471
vn -0.7768 0.5224 0.3516
vn 0.8786 0.2730 -0.3918
vn 0.8813 0.2612 -0.3937
vn 0.8787 0.2699 -0.3937
vn -0.8735 -0.2875 0.3929
vn -0.8813 -0.2613 0.3938
vn -0.8761 -0.2853 0.3887
vn 0.6996 -0.5982 -0.3907
vn -0.8274 0.4123 0.3812
vn 0.8856 0.2364 -0.3997
vn -0.8086 -0.4284 0.4033
vn -0.8287 -0.4332 0.3544
vn 0.0669 -0.9242 -0.3760
vn 0.7877 -0.4561 -0.4142
vn -0.8808 0.3121 0.3560
vn 0.7647 -0.5439 -0.3455
vn 0.5436 -0.7701 -0.3337
vn -0.0529 -0.9263 -0.3730
vn 0.0393 0.9955 -0.0858
vn 0.3700 0.9088 -0.1928
vn -0.0000 0.9961 -0.0886
vn -0.0393 0.9955 -0.0858
vn 0.9058 0.1832 -0.3822
vn 0.8628 0.3658 -0.3490
vn -0.7884 0.5146 0.3371
vt 0.877923 0.800827
vt 0.889266 0.778727
vt 0.961788 0.790876
vt 0.962452 0.830024
vt 0.897147 0.758546
vt 0.955121 0.760924
vt 0.812451 0.577786
vt 0.782391 0.571628
vt 0.779030 0.513702
vt 0.799075 0.505481
vt 0.851605 0.577786
vt 0.820979 0.493765
vt 0.765834 0.461031
vt 0.781012 0.445594
vt 0.752482 0.474611
vt 0.712947 0.448731
vt 0.720827 0.428549
vt 0.732170 0.406449
vt 0.648306 0.416400
vt 0.647642 0.377252
vt 0.654973 0.446352
vt 0.797642 0.629490
vt 0.827703 0.635648
vt 0.831064 0.693574
vt 0.811019 0.701795
vt 0.758488 0.629490
vt 0.789114 0.713511
vt 0.844259 0.746245
vt 0.829082 0.761682
vt 0.857611 0.732665
vt 0.906861 0.722339
vt 0.881455 0.708413
vt 0.893357 0.696308
vt 0.910029 0.705407
vt 0.867101 0.683248
vt 0.883977 0.679792
vt 0.896285 0.677708
vt 0.903781 0.685706
vt 0.911905 0.693065
vt 0.745550 0.749007
vt 0.766088 0.729823
vt 0.811887 0.779171
vt 0.794361 0.796997
vt 0.862004 0.824127
vt 0.843172 0.844987
vt 0.766922 0.362289
vt 0.748089 0.383149
vt 0.659325 0.329228
vt 0.687332 0.284036
vt 0.710670 0.641985
vt 0.665959 0.670754
vt 0.864544 0.458269
vt 0.844006 0.477453
vt 0.798206 0.428106
vt 0.815733 0.410279
vt 0.950769 0.878048
vt 0.922762 0.923240
vt 0.899424 0.565291
vt 0.944134 0.536522
vt 0.937610 0.719063
vt 0.946343 0.737745
vt 0.902751 0.739892
vt 0.740239 0.554829
vt 0.742993 0.524028
vt 0.760474 0.519622
vt 0.759066 0.563244
vt 0.728638 0.498863
vt 0.740263 0.487039
vt 0.703233 0.484937
vt 0.707343 0.467384
vt 0.672484 0.488213
vt 0.663751 0.469531
vt 0.869855 0.652447
vt 0.849620 0.687654
vt 0.851027 0.644032
vt 0.869831 0.720237
vt 0.698189 0.514211
vt 0.706313 0.521570
vt 0.696882 0.531162
vt 0.688173 0.519960
vt 0.713809 0.529568
vt 0.708231 0.539680
vt 0.913211 0.676114
vt 0.921920 0.687316
vt 0.901863 0.667596
vt 0.887154 0.660156
vt 0.700064 0.501869
vt 0.680485 0.505379
vt 0.716736 0.510968
vt 0.726117 0.527484
vt 0.722940 0.547120
vt 0.929609 0.701897
vt 0.799607 0.880483
vt 0.830233 0.964504
vt 0.791079 0.964504
vt 0.777702 0.892199
vt 0.983824 0.443307
vt 0.899296 0.414109
vt 0.910639 0.392009
vt 0.983160 0.404158
vt 0.918519 0.371828
vt 0.976493 0.374207
vt 0.761019 0.958346
vt 0.757657 0.900420
vt 0.850454 0.374964
vt 0.865632 0.359527
vt 0.810487 0.326793
vt 0.832391 0.315077
vt 0.852436 0.306856
vt 0.878984 0.345947
vt 0.779861 0.242772
vt 0.819014 0.242772
vt 0.626270 0.763970
vt 0.710798 0.793167
vt 0.699455 0.815267
vt 0.626934 0.803118
vt 0.691575 0.835449
vt 0.633601 0.833070
vt 0.849075 0.248930
vt 0.759640 0.832312
vt 0.744462 0.847749
vt 0.731110 0.861329
vt 0.721621 0.910746
vt 0.704745 0.914202
vt 0.695364 0.897686
vt 0.707266 0.885581
vt 0.692437 0.916286
vt 0.684941 0.908288
vt 0.676817 0.900929
vt 0.678692 0.888587
vt 0.681861 0.871655
vt 0.776834 0.814823
vt 0.726717 0.769867
vt 0.822634 0.864171
vt 0.732042 0.255268
vt 0.787460 0.343105
vt 0.637953 0.715946
vt 0.833260 0.392453
vt 0.883377 0.437409
vt 0.878052 0.952008
vt 0.972141 0.491330
vt 0.739102 0.906340
vt 0.737694 0.949962
vt 0.718867 0.941547
vt 0.967715 0.351027
vt 0.924123 0.353174
vt 0.958982 0.332345
vt 0.928233 0.335621
vt 0.891203 0.333519
vt 0.902828 0.321695
vt 0.870992 0.300936
vt 0.888473 0.296530
vt 0.872400 0.257314
vt 0.891227 0.265729
vt 0.642379 0.856249
vt 0.685970 0.854102
vt 0.651112 0.874931
vt 0.718891 0.873757
vt 0.917657 0.290990
vt 0.923235 0.280878
vt 0.934583 0.289396
vt 0.925153 0.298988
vt 0.666801 0.906678
vt 0.675510 0.917880
vt 0.686858 0.926398
vt 0.943293 0.300598
vt 0.933277 0.306347
vt 0.659113 0.892097
vt 0.908526 0.273438
vt 0.905349 0.293074
vt 0.914729 0.309590
vt 0.931402 0.318689
vt 0.950981 0.315180
vt 0.701568 0.933838
vt 0.117295 0.789918
vt 0.105579 0.811823
vt 0.033274 0.798446
vt 0.033274 0.759292
vt 0.097358 0.831868
vt 0.039432 0.828506
vt 0.486759 0.377683
vt 0.516710 0.384350
vt 0.519089 0.442324
vt 0.498908 0.450204
vt 0.447610 0.377019
vt 0.476808 0.461547
vt 0.531390 0.495211
vt 0.515953 0.510389
vt 0.544970 0.481859
vt 0.584061 0.508406
vt 0.575840 0.528451
vt 0.564124 0.550356
vt 0.648145 0.541828
vt 0.648145 0.580982
vt 0.641986 0.511768
vt 0.194660 0.962591
vt 0.164708 0.955924
vt 0.162329 0.897950
vt 0.182511 0.890070
vt 0.233808 0.963255
vt 0.204611 0.878727
vt 0.150029 0.845063
vt 0.165466 0.829885
vt 0.136448 0.858415
vt 0.087031 0.867904
vt 0.112197 0.882259
vt 0.100091 0.894161
vt 0.083576 0.884780
vt 0.126123 0.907664
vt 0.109190 0.910833
vt 0.096849 0.912708
vt 0.089490 0.904584
vt 0.081492 0.897088
vt 0.248771 0.843975
vt 0.227911 0.862808
vt 0.182954 0.812691
vt 0.200781 0.795164
vt 0.133607 0.766891
vt 0.152790 0.746353
vt 0.528628 0.593921
vt 0.547812 0.573383
vt 0.635649 0.628801
vt 0.606880 0.673511
vt 0.281832 0.951572
vt 0.327023 0.923566
vt 0.432647 0.496299
vt 0.453508 0.477466
vt 0.498464 0.527583
vt 0.480638 0.545110
vt 0.045769 0.711473
vt 0.074538 0.666763
vt 0.399587 0.388702
vt 0.354395 0.416708
vt 0.056231 0.870658
vt 0.047816 0.851831
vt 0.091438 0.850423
vt 0.558571 0.401861
vt 0.555296 0.432610
vt 0.537743 0.436720
vt 0.539890 0.393128
vt 0.569222 0.458015
vt 0.557398 0.469640
vt 0.594387 0.472370
vt 0.589981 0.489851
vt 0.625188 0.469616
vt 0.633603 0.488443
vt 0.122847 0.938413
vt 0.143676 0.903555
vt 0.141529 0.947146
vt 0.124020 0.870634
vt 0.599927 0.443186
vt 0.591929 0.435690
vt 0.601521 0.426259
vt 0.610039 0.437607
vt 0.584569 0.427566
vt 0.590319 0.417550
vt 0.079898 0.914015
vt 0.071380 0.902667
vt 0.091100 0.922724
vt 0.105681 0.930412
vt 0.597843 0.455494
vt 0.617478 0.452317
vt 0.581327 0.446113
vt 0.572228 0.429441
vt 0.575737 0.409862
vt 0.063940 0.887957
vt 0.196951 0.711602
vt 0.167753 0.627073
vt 0.206902 0.627737
vt 0.219051 0.700258
vt 0.313131 0.509237
vt 0.397152 0.539863
vt 0.385436 0.561768
vt 0.313131 0.548391
vt 0.377215 0.581813
vt 0.319289 0.578452
vt 0.236853 0.634404
vt 0.239232 0.692378
vt 0.445323 0.579831
vt 0.429886 0.595008
vt 0.484468 0.628672
vt 0.462368 0.640016
vt 0.442186 0.647896
vt 0.416305 0.608360
vt 0.513665 0.713201
vt 0.474517 0.712537
vt 0.368288 0.831037
vt 0.284266 0.800411
vt 0.295983 0.778506
vt 0.368288 0.791883
vt 0.304204 0.758461
vt 0.362129 0.761822
vt 0.444565 0.705870
vt 0.236095 0.760443
vt 0.251532 0.745266
vt 0.265113 0.731914
vt 0.275439 0.682665
vt 0.292371 0.679496
vt 0.301470 0.696168
vt 0.289365 0.708070
vt 0.304712 0.677620
vt 0.312072 0.685744
vt 0.320070 0.693240
vt 0.317985 0.705548
vt 0.314530 0.722424
vt 0.218607 0.777638
vt 0.267955 0.823437
vt 0.173651 0.727521
vt 0.561689 0.701518
vt 0.507768 0.612754
vt 0.355792 0.878855
vt 0.462811 0.562636
vt 0.413464 0.516837
vt 0.119730 0.638756
vt 0.325626 0.461419
vt 0.257886 0.686774
vt 0.260032 0.643182
vt 0.278714 0.651915
vt 0.327673 0.601776
vt 0.371295 0.600369
vt 0.336088 0.620604
vt 0.366888 0.617850
vt 0.403877 0.620580
vt 0.392054 0.632204
vt 0.423533 0.653500
vt 0.405980 0.657610
vt 0.421386 0.697092
vt 0.402704 0.688359
vt 0.353746 0.738498
vt 0.310124 0.739905
vt 0.345330 0.719670
vt 0.277541 0.719694
vt 0.376706 0.662654
vt 0.370957 0.672670
vt 0.359755 0.663960
vt 0.369347 0.654530
vt 0.330182 0.687662
vt 0.321663 0.676314
vt 0.310461 0.667605
vt 0.351237 0.652612
vt 0.361349 0.647034
vt 0.337621 0.702371
vt 0.385538 0.680358
vt 0.389047 0.660778
vt 0.379948 0.644106
vt 0.363433 0.634726
vt 0.343797 0.637903
vt 0.295880 0.659916
vt 0.602964 0.328601
vt 0.597605 0.338456
vt 0.592190 0.334434
vt 0.596471 0.325803
vt 0.592807 0.342919
vt 0.588501 0.337627
vt 0.585276 0.335391
vt 0.586935 0.332871
vt 0.589868 0.324247
vt 0.564144 0.324883
vt 0.563692 0.335135
vt 0.549653 0.336451
vt 0.549500 0.326913
vt 0.563863 0.338755
vt 0.549836 0.339739
vt 0.542522 0.339965
vt 0.540807 0.337912
vt 0.539047 0.329449
vt 0.042651 0.380461
vt 0.034616 0.371836
vt 0.040282 0.368581
vt 0.047417 0.374547
vt 0.032619 0.365943
vt 0.039185 0.364378
vt 0.042544 0.362651
vt 0.043973 0.364910
vt 0.051485 0.369174
vt 0.063504 0.346693
vt 0.053611 0.343989
vt 0.059569 0.331152
vt 0.069101 0.332986
vt 0.050220 0.342720
vt 0.056408 0.330033
vt 0.059963 0.323378
vt 0.062866 0.322570
vt 0.071967 0.322413
vt 0.211848 0.561534
vt 0.217808 0.556316
vt 0.241657 0.582677
vt 0.237652 0.589522
vt 0.222767 0.550378
vt 0.244757 0.576676
vt 0.252376 0.583115
vt 0.252852 0.587757
vt 0.253520 0.594693
vt 0.038669 0.337612
vt 0.046711 0.323021
vt 0.052496 0.327260
vt 0.045461 0.340611
vt 0.055101 0.313915
vt 0.058821 0.319627
vt 0.033276 0.353456
vt 0.040337 0.354767
vt 0.044996 0.355763
vt 0.326997 0.235443
vt 0.327705 0.223203
vt 0.363783 0.203118
vt 0.364024 0.213335
vt 0.328538 0.211126
vt 0.364245 0.193755
vt 0.374025 0.192123
vt 0.375053 0.197725
vt 0.374126 0.204817
vt 0.048068 0.356943
vt 0.057095 0.360005
vt 0.577748 0.333387
vt 0.578917 0.323744
vt 0.577847 0.336742
vt 0.381229 0.183143
vt 0.387976 0.193908
vt 0.380392 0.195899
vt 0.376911 0.188636
vt 0.385778 0.210219
vt 0.378246 0.206847
vt 0.331942 0.250278
vt 0.328173 0.243256
vt 0.366313 0.219974
vt 0.371126 0.226158
vt 0.774228 0.113588
vt 0.762461 0.110701
vt 0.792608 0.082428
vt 0.801675 0.084841
vt 0.750575 0.107645
vt 0.782941 0.079084
vt 0.794142 0.072049
vt 0.801186 0.073328
vt 0.806212 0.076015
vt 0.787111 0.121943
vt 0.781248 0.116697
vt 0.808093 0.086298
vt 0.815577 0.088886
vt 0.810417 0.074328
vt 0.816970 0.071885
vt 0.272168 0.574825
vt 0.264608 0.589694
vt 0.259564 0.583790
vt 0.264079 0.573381
vt 0.256343 0.579054
vt 0.259649 0.572601
vt 0.441685 0.103067
vt 0.430260 0.107249
vt 0.409578 0.079792
vt 0.418881 0.076163
vt 0.418805 0.111069
vt 0.400501 0.082294
vt 0.396698 0.073211
vt 0.401680 0.070672
vt 0.408710 0.069405
vt 0.229912 0.540615
vt 0.249929 0.568672
vt 0.237356 0.531002
vt 0.256240 0.560801
vt 0.454999 0.094763
vt 0.448693 0.099553
vt 0.424250 0.072097
vt 0.429101 0.065633
vt 0.409265 0.064950
vt 0.409991 0.057294
vt 0.570240 0.237743
vt 0.569732 0.247898
vt 0.551041 0.236251
vt 0.556635 0.229528
vt 0.569287 0.264670
vt 0.544336 0.241350
vt 0.516444 0.206948
vt 0.523735 0.203471
vt 0.530182 0.198694
vt 0.097958 0.392933
vt 0.105831 0.380288
vt 0.127994 0.402617
vt 0.120278 0.413852
vt 0.122387 0.360192
vt 0.136962 0.391064
vt 0.161207 0.428134
vt 0.153710 0.438259
vt 0.146368 0.448358
vt 0.545095 0.274293
vt 0.530601 0.246369
vt 0.530648 0.277920
vt 0.517546 0.250278
vt 0.492652 0.214905
vt 0.504515 0.211003
vt 0.088552 0.406644
vt 0.093339 0.400064
vt 0.115139 0.420389
vt 0.109196 0.426040
vt 0.141099 0.454327
vt 0.134854 0.459333
vt 0.620639 0.282543
vt 0.613507 0.279146
vt 0.627888 0.255905
vt 0.634474 0.260679
vt 0.605625 0.276975
vt 0.620131 0.252888
vt 0.653496 0.219570
vt 0.660763 0.222854
vt 0.666572 0.228387
vt 0.591663 0.274214
vt 0.607007 0.249698
vt 0.593328 0.245529
vt 0.629156 0.213873
vt 0.641333 0.216787
vt 0.148319 0.367440
vt 0.138494 0.364854
vt 0.150905 0.350946
vt 0.156624 0.357467
vt 0.147940 0.343126
vt 0.188966 0.318659
vt 0.190130 0.326588
vt 0.193955 0.333612
vt 0.120125 0.335975
vt 0.148135 0.328837
vt 0.121754 0.321844
vt 0.149095 0.315376
vt 0.190951 0.293764
vt 0.189899 0.306186
vt 0.485736 0.150830
vt 0.492307 0.146330
vt 0.478528 0.154165
vt 0.192419 0.490225
vt 0.184975 0.500106
vt 0.199896 0.480352
vt 0.466843 0.158280
vt 0.455157 0.162344
vt 0.179663 0.505975
vt 0.173435 0.510914
vt 0.721327 0.169607
vt 0.726945 0.175287
vt 0.714136 0.166244
vt 0.702042 0.163494
vt 0.689955 0.160733
vt 0.259069 0.284849
vt 0.262807 0.291924
vt 0.258032 0.276974
vt 0.259083 0.264633
vt 0.260146 0.252287
vt 0.596101 0.303470
vt 0.583412 0.302283
vt 0.566146 0.302135
vt 0.071509 0.378711
vt 0.078059 0.367490
vt 0.085761 0.351739
vt 0.090893 0.335262
vt 0.093637 0.322826
vt 0.063534 0.392263
vt 0.067462 0.385360
vt 0.548787 0.304653
vt 0.536095 0.307456
vt 0.610590 0.307444
vt 0.603510 0.304953
vt 0.094486 0.315324
vt 0.122090 0.313682
vt 0.072502 0.315657
vt 0.071823 0.308626
vt 0.094276 0.307828
vt 0.121032 0.305861
vt 0.528522 0.309272
vt 0.522441 0.280125
vt 0.532681 0.331679
vt 0.525586 0.334406
vt 0.520742 0.310894
vt 0.514704 0.282657
vt 0.621951 0.210347
vt 0.682763 0.157344
vt 0.616420 0.204558
vt 0.677157 0.151623
vt 0.737940 0.098407
vt 0.743485 0.104141
vt 0.190038 0.285851
vt 0.259134 0.244422
vt 0.186541 0.278640
vt 0.255438 0.237348
vt 0.324508 0.196325
vt 0.327715 0.203501
vt 0.485350 0.218078
vt 0.447938 0.165590
vt 0.478659 0.222472
vt 0.441319 0.169985
vt 0.404876 0.117993
vt 0.411654 0.113954
vt 0.166726 0.422236
vt 0.205252 0.474490
vt 0.173225 0.417530
vt 0.211522 0.469582
vt 0.249238 0.520817
vt 0.242801 0.525381
vt 0.586773 0.240320
vt 0.582295 0.232880
vt 0.148586 0.307076
vt 0.146047 0.299356
vt 0.509745 0.253156
vt 0.502535 0.257066
vt 0.143852 0.386216
vt 0.151954 0.382916
vt 0.261764 0.556857
vt 0.269023 0.554094
vt 0.398169 0.066276
vt 0.392490 0.071383
vt 0.386231 0.068663
vt 0.394182 0.059892
vt 0.364813 0.187205
vt 0.364626 0.179295
vt 0.777309 0.074878
vt 0.772881 0.068403
vt 0.792544 0.059294
vt 0.793462 0.067503
vt 0.804554 0.068794
vt 0.808764 0.062171
vt 0.549358 0.344483
vt 0.539848 0.342637
vt 0.564416 0.343936
vt 0.565194 0.351326
vt 0.548444 0.351613
vt 0.536345 0.348414
vt 0.579292 0.341318
vt 0.581561 0.348129
vt 0.393914 0.083405
vt 0.386260 0.085081
vt 0.536179 0.340304
vt 0.531341 0.344705
vt 0.062984 0.317093
vt 0.060812 0.310714
s 1
usemtl Material
f 5/1/1 135/2/2 391/3/3 147/4/4
f 135/2/2 9/5/5 136/6/6 391/3/3
f 391/7/3 136/8/6 10/9/7 141/10/8
f 147/11/4 391/7/3 141/10/8 6/12/9
f 6/12/9 141/10/8 392/13/10 146/14/11
f 141/10/8 10/9/7 137/15/12 392/13/10
f 392/13/10 137/15/12 11/16/13 142/17/14
f 146/14/11 392/13/10 142/17/14 7/18/15
f 7/18/15 142/17/14 393/19/16 145/20/17
f 142/17/14 11/16/13 138/21/18 393/19/16
f 393/22/16 138/23/18 12/24/19 143/25/20
f 145/26/17 393/22/16 143/25/20 8/27/21
f 8/27/21 143/25/20 394/28/22 144/29/23
f 143/25/20 12/24/19 139/30/24 394/28/22
f 394/28/22 139/30/24 9/5/5 135/2/2
f 144/29/23 394/28/22 135/2/2 5/1/1
f 1/31/25 151/32/26 395/33/27 161/34/28
f 151/32/26 3/35/29 160/36/30 395/33/27
f 395/33/27 160/36/30 16/37/31 159/38/32
f 161/34/28 395/33/27 159/38/32 13/39/33
f 20/40/34 166/41/35 396/42/36 170/43/37
f 166/41/35 8/27/21 144/29/23 396/42/36
f 396/42/36 144/29/23 5/1/1 140/44/38
f 170/43/37 396/42/36 140/44/38 17/45/39
f 19/46/40 165/47/41 397/48/42 169/49/43
f 165/47/41 7/18/15 145/20/17 397/48/42
f 397/50/42 145/26/17 8/27/21 166/41/35
f 169/51/43 397/50/42 166/41/35 20/40/34
f 18/52/44 164/53/45 398/54/46 168/55/47
f 164/53/45 6/12/9 146/14/11 398/54/46
f 398/54/46 146/14/11 7/18/15 165/47/41
f 168/55/47 398/54/46 165/47/41 19/46/40
f 17/45/39 140/44/38 399/56/48 167/57/49
f 140/44/38 5/1/1 147/4/4 399/56/48
f 399/58/48 147/11/4 6/12/9 164/53/45
f 167/59/49 399/58/48 164/53/45 18/52/44
f 1/31/25 148/60/50 400/61/51 152/62/52
f 148/63/50 2/64/53 153/65/54 400/66/51
f 400/66/51 153/65/54 10/9/7 136/8/6
f 152/62/52 400/61/51 136/6/6 9/5/5
f 2/64/53 149/67/55 401/68/56 153/65/54
f 149/67/55 4/69/57 154/70/58 401/68/56
f 401/68/56 154/70/58 11/16/13 137/15/12
f 153/65/54 401/68/56 137/15/12 10/9/7
f 4/69/57 150/71/59 402/72/60 154/70/58
f 150/73/59 3/35/29 155/74/61 402/75/60
f 402/75/60 155/74/61 12/24/19 138/23/18
f 154/70/58 402/72/60 138/21/18 11/16/13
f 3/35/29 151/32/26 403/76/62 155/74/61
f 151/32/26 1/31/25 152/62/52 403/76/62
f 403/76/62 152/62/52 9/5/5 139/30/24
f 155/74/61 403/76/62 139/30/24 12/24/19
f 15/77/63 157/78/64 404/79/65 158/80/66
f 157/78/64 14/81/67 156/82/68 404/79/65
f 404/83/65 156/84/68 13/39/33 159/38/32
f 158/85/66 404/83/65 159/38/32 16/37/31
f 3/35/29 150/73/59 405/86/69 160/36/30
f 150/71/59 4/69/57 162/87/70 405/88/69
f 405/88/69 162/87/70 15/77/63 158/80/66
f 160/36/30 405/86/69 158/85/66 16/37/31
f 4/69/57 149/67/55 406/89/71 162/87/70
f 149/67/55 2/64/53 163/90/72 406/89/71
f 406/89/71 163/90/72 14/81/67 157/78/64
f 162/87/70 406/89/71 157/78/64 15/77/63
f 2/64/53 148/63/50 407/91/73 163/90/72
f 148/60/50 1/31/25 161/34/28 407/92/73
f 407/92/73 161/34/28 13/39/33 156/84/68
f 163/90/72 407/91/73 156/82/68 14/81/67
f 25/93/74 183/94/75 408/95/76 171/96/77
f 183/97/75 26/98/78 177/99/79 408/100/76
f 408/100/76 177/99/79 30/101/80 172/102/81
f 171/96/77 408/95/76 172/103/81 29/104/82
f 26/98/78 182/105/83 409/106/84 177/99/79
f 182/105/83 27/107/85 178/108/86 409/106/84
f 409/106/84 178/108/86 31/109/87 173/110/88
f 177/99/79 409/106/84 173/110/88 30/101/80
f 27/107/85 181/111/89 410/112/90 178/108/86
f 181/113/89 28/114/91 179/115/92 410/116/90
f 410/116/90 179/115/92 32/117/93 174/118/94
f 178/108/86 410/112/90 174/119/94 31/109/87
f 28/114/91 180/120/95 411/121/96 179/115/92
f 180/120/95 25/93/74 171/96/77 411/121/96
f 411/121/96 171/96/77 29/104/82 175/122/97
f 179/115/92 411/121/96 175/122/97 32/117/93
f 21/123/98 197/124/99 412/125/100 187/126/101
f 197/124/99 33/127/102 195/128/103 412/125/100
f 412/125/100 195/128/103 36/129/104 196/130/105
f 187/126/101 412/125/100 196/130/105 23/131/106
f 20/40/34 170/43/37 413/132/107 202/133/108
f 170/43/37 17/45/39 176/134/109 413/132/107
f 413/132/107 176/134/109 25/93/74 180/120/95
f 202/133/108 413/132/107 180/120/95 28/114/91
f 19/46/40 169/49/43 414/135/110 201/136/111
f 169/51/43 20/40/34 202/133/108 414/137/110
f 414/137/110 202/133/108 28/114/91 181/113/89
f 201/136/111 414/135/110 181/111/89 27/107/85
f 18/52/44 168/55/47 415/138/112 200/139/113
f 168/55/47 19/46/40 201/136/111 415/138/112
f 415/138/112 201/136/111 27/107/85 182/105/83
f 200/139/113 415/138/112 182/105/83 26/98/78
f 17/45/39 167/57/49 416/140/114 176/134/109
f 167/59/49 18/52/44 200/139/113 416/141/114
f 416/141/114 200/139/113 26/98/78 183/97/75
f 176/134/109 416/140/114 183/94/75 25/93/74
f 21/123/98 188/142/115 417/143/116 184/144/117
f 188/142/115 29/104/82 172/103/81 417/143/116
f 417/145/116 172/102/81 30/101/80 189/146/118
f 184/147/117 417/145/116 189/146/118 22/148/119
f 22/148/119 189/146/118 418/149/120 185/150/121
f 189/146/118 30/101/80 173/110/88 418/149/120
f 418/149/120 173/110/88 31/109/87 190/151/122
f 185/150/121 418/149/120 190/151/122 24/152/123
f 24/152/123 190/151/122 419/153/124 186/154/125
f 190/151/122 31/109/87 174/119/94 419/153/124
f 419/155/124 174/118/94 32/117/93 191/156/126
f 186/157/125 419/155/124 191/156/126 23/131/106
f 23/131/106 191/156/126 420/158/127 187/126/101
f 191/156/126 32/117/93 175/122/97 420/158/127
f 420/158/127 175/122/97 29/104/82 188/142/115
f 187/126/101 420/158/127 188/142/115 21/123/98
f 35/159/128 194/160/129 421/161/130 193/162/131
f 194/163/129 36/129/104 195/128/103 421/164/130
f 421/164/130 195/128/103 33/127/102 192/165/132
f 193/162/131 421/161/130 192/166/132 34/167/133
f 23/131/106 196/130/105 422/168/134 186/157/125
f 196/130/105 36/129/104 194/163/129 422/168/134
f 422/169/134 194/160/129 35/159/128 198/170/135
f 186/154/125 422/169/134 198/170/135 24/152/123
f 24/152/123 198/170/135 423/171/136 185/150/121
f 198/170/135 35/159/128 193/162/131 423/171/136
f 423/171/136 193/162/131 34/167/133 199/172/137
f 185/150/121 423/171/136 199/172/137 22/148/119
f 22/148/119 199/172/137 424/173/138 184/147/117
f 199/172/137 34/167/133 192/166/132 424/173/138
f 424/174/138 192/165/132 33/127/102 197/124/99
f 184/144/117 424/174/138 197/124/99 21/123/98
f 41/175/1 203/176/2 425/177/3 215/178/4
f 203/176/2 45/179/5 204/180/6 425/177/3
f 425/181/3 204/182/6 46/183/7 209/184/8
f 215/185/4 425/181/3 209/184/8 42/186/9
f 42/186/9 209/184/8 426/187/10 214/188/11
f 209/184/8 46/183/7 205/189/12 426/187/10
f 426/187/10 205/189/12 47/190/13 210/191/14
f 214/188/11 426/187/10 210/191/14 43/192/15
f 43/192/15 210/191/14 427/193/16 213/194/17
f 210/191/14 47/190/13 206/195/18 427/193/16
f 427/196/16 206/197/18 48/198/19 211/199/20
f 213/200/17 427/196/16 211/199/20 44/201/21
f 44/201/21 211/199/20 428/202/22 212/203/23
f 211/199/20 48/198/19 207/204/24 428/202/22
f 428/202/22 207/204/24 45/179/5 203/176/2
f 212/203/23 428/202/22 203/176/2 41/175/1
f 37/205/25 219/206/26 429/207/27 229/208/28
f 219/206/26 39/209/29 228/210/30 429/207/27
f 429/207/27 228/210/30 52/211/31 227/212/32
f 229/208/28 429/207/27 227/212/32 49/213/33
f 56/214/34 234/215/35 430/216/36 238/217/37
f 234/215/35 44/201/21 212/203/23 430/216/36
f 430/216/36 212/203/23 41/175/1 208/218/38
f 238/217/37 430/216/36 208/218/38 53/219/39
f 55/220/40 233/221/41 431/222/42 237/223/43
f 233/221/41 43/192/15 213/194/17 431/222/42
f 431/224/42 213/200/17 44/201/21 234/215/35
f 237/225/43 431/224/42 234/215/35 56/214/34
f 54/226/44 232/227/45 432/228/46 236/229/47
f 232/227/45 42/186/9 214/188/11 432/228/46
f 432/228/46 214/188/11 43/192/15 233/221/41
f 236/229/47 432/228/46 233/221/41 55/220/40
f 53/219/39 208/218/38 433/230/48 235/231/49
f 208/218/38 41/175/1 215/178/4 433/230/48
f 433/232/48 215/185/4 42/186/9 232/227/45
f 235/233/49 433/232/48 232/227/45 54/226/44
f 37/205/25 216/234/50 434/235/51 220/236/52
f 216/237/50 38/238/53 221/239/54 434/240/51
f 434/240/51 221/239/54 46/183/7 204/182/6
f 220/236/52 434/235/51 204/180/6 45/179/5
f 38/238/53 217/241/55 435/242/56 221/239/54
f 217/241/55 40/243/57 222/244/58 435/242/56
f 435/242/56 222/244/58 47/190/13 205/189/12
f 221/239/54 435/242/56 205/189/12 46/183/7
f 40/243/57 218/245/59 436/246/60 222/244/58
f 218/247/59 39/209/29 223/248/61 436/249/60
f 436/249/60 223/248/61 48/198/19 206/197/18
f 222/244/58 436/246/60 206/195/18 47/190/13
f 39/209/29 219/206/26 437/250/62 223/248/61
f 219/206/26 37/205/25 220/236/52 437/250/62
f 437/250/62 220/236/52 45/179/5 207/204/24
f 223/248/61 437/250/62 207/204/24 48/198/19
f 51/251/63 225/252/64 438/253/65 226/254/66
f 225/252/64 50/255/67 224/256/68 438/253/65
f 438/257/65 224/258/68 49/213/33 227/212/32
f 226/259/66 438/257/65 227/212/32 52/211/31
f 39/209/29 218/247/59 439/260/69 228/210/30
f 218/245/59 40/243/57 230/261/70 439/262/69
f 439/262/69 230/261/70 51/251/63 226/254/66
f 228/210/30 439/260/69 226/259/66 52/211/31
f 40/243/57 217/241/55 440/263/71 230/261/70
f 217/241/55 38/238/53 231/264/72 440/263/71
f 440/263/71 231/264/72 50/255/67 225/252/64
f 230/261/70 440/263/71 225/252/64 51/251/63
f 38/238/53 216/237/50 441/265/73 231/264/72
f 216/234/50 37/205/25 229/208/28 441/266/73
f 441/266/73 229/208/28 49/213/33 224/258/68
f 231/264/72 441/265/73 224/256/68 50/255/67
f 61/267/74 251/268/75 442/269/76 239/270/77
f 251/271/75 62/272/78 245/273/79 442/274/76
f 442/274/76 245/273/79 66/275/80 240/276/81
f 239/270/77 442/269/76 240/277/81 65/278/82
f 62/272/78 250/279/83 443/280/84 245/273/79
f 250/279/83 63/281/85 246/282/86 443/280/84
f 443/280/84 246/282/86 67/283/87 241/284/88
f 245/273/79 443/280/84 241/284/88 66/275/80
f 63/281/85 249/285/89 444/286/90 246/282/86
f 249/287/89 64/288/91 247/289/92 444/290/90
f 444/290/90 247/289/92 68/291/93 242/292/94
f 246/282/86 444/286/90 242/293/94 67/283/87
f 64/288/91 248/294/95 445/295/96 247/289/92
f 248/294/95 61/267/74 239/270/77 445/295/96
f 445/295/96 239/270/77 65/278/82 243/296/97
f 247/289/92 445/295/96 243/296/97 68/291/93
f 57/297/98 265/298/99 446/299/100 255/300/101
f 265/298/99 69/301/102 263/302/103 446/299/100
f 446/299/100 263/302/103 72/303/104 264/304/105
f 255/300/101 446/299/100 264/304/105 59/305/106
f 56/214/34 238/217/37 447/306/107 270/307/108
f 238/217/37 53/219/39 244/308/109 447/306/107
f 447/306/107 244/308/109 61/267/74 248/294/95
f 270/307/108 447/306/107 248/294/95 64/288/91
f 55/220/40 237/223/43 448/309/110 269/310/111
f 237/225/43 56/214/34 270/307/108 448/311/110
f 448/311/110 270/307/108 64/288/91 249/287/89
f 269/310/111 448/309/110 249/285/89 63/281/85
f 54/226/44 236/229/47 449/312/112 268/313/113
f 236/229/47 55/220/40 269/310/111 449/312/112
f 449/312/112 269/310/111 63/281/85 250/279/83
f 268/313/113 449/312/112 250/279/83 62/272/78
f 53/219/39 235/231/49 450/314/114 244/308/109
f 235/233/49 54/226/44 268/313/113 450/315/114
f 450/315/114 268/313/113 62/272/78 251/271/75
f 244/308/109 450/314/114 251/268/75 61/267/74
f 57/297/98 256/316/115 451/317/116 252/318/139
f 256/316/115 65/278/82 240/277/81 451/317/116
f 451/319/116 240/276/81 66/275/80 257/320/118
f 252/321/139 451/319/116 257/320/118 58/322/119
f 58/322/119 257/320/118 452/323/120 253/324/121
f 257/320/118 66/275/80 241/284/88 452/323/120
f 452/323/120 241/284/88 67/283/87 258/325/122
f 253/324/121 452/323/120 258/325/122 60/326/123
f 60/326/123 258/325/122 453/327/124 254/328/125
f 258/325/122 67/283/87 242/293/94 453/327/124
f 453/329/124 242/292/94 68/291/93 259/330/126
f 254/331/125 453/329/124 259/330/126 59/305/106
f 59/305/106 259/330/126 454/332/127 255/300/101
f 259/330/126 68/291/93 243/296/97 454/332/127
f 454/332/127 243/296/97 65/278/82 256/316/115
f 255/300/101 454/332/127 256/316/115 57/297/98
f 71/333/128 262/334/129 455/335/130 261/336/131
f 262/337/129 72/303/104 263/302/103 455/338/130
f 455/338/130 263/302/103 69/301/102 260/339/132
f 261/336/131 455/335/130 260/340/132 70/341/133
f 59/305/106 264/304/105 456/342/134 254/331/125
f 264/304/105 72/303/104 262/337/129 456/342/134
f 456/343/134 262/334/129 71/333/128 266/344/135
f 254/328/125 456/343/134 266/344/135 60/326/123
f 60/326/123 266/344/135 457/345/136 253/324/121
f 266/344/135 71/333/128 261/336/131 457/345/136
f 457/345/136 261/336/131 70/341/133 267/346/137
f 253/324/121 457/345/136 267/346/137 58/322/119
f 58/322/119 267/346/137 458/347/138 252/321/139
f 267/346/137 70/341/133 260/340/132 458/347/138
f 458/348/138 260/339/132 69/301/102 265/298/99
f 252/318/139 458/348/138 265/298/99 57/297/98
f 134/349/140 390/350/141 459/351/142 350/352/143
f 390/350/141 116/353/144 273/354/145 459/351/142
f 459/351/142 273/354/145 76/355/146 340/356/147
f 350/352/143 459/351/142 340/356/147 110/357/148
f 114/358/149 344/359/150 460/360/151 349/361/152
f 344/359/150 82/362/153 276/363/154 460/360/151
f 460/360/151 276/363/154 80/364/155 341/365/156
f 349/361/152 460/360/151 341/365/156 111/366/157
f 133/367/158 389/368/159 461/369/160 348/370/161
f 389/368/159 118/371/162 279/372/163 461/369/160
f 461/369/160 279/372/163 78/373/164 342/374/165
f 348/370/161 461/369/160 342/374/165 112/375/166
f 113/376/167 343/377/168 462/378/169 347/379/170
f 343/377/168 84/380/171 282/381/172 462/378/169
f 462/378/169 282/381/172 74/382/173 272/383/174
f 347/379/170 462/378/169 272/383/174 109/384/175
f 130/385/176 366/386/177 463/387/178 388/388/179
f 366/386/177 101/389/180 303/390/181 463/387/178
f 463/387/178 303/390/181 89/391/182 359/392/183
f 388/388/179 463/387/178 359/392/183 123/393/184
f 119/394/65 387/395/185 464/396/186 287/397/187
f 387/395/185 116/398/144 352/399/188 464/396/186
f 464/396/186 352/399/188 74/382/173 282/381/172
f 287/397/187 464/396/186 282/381/172 84/380/171
f 118/371/162 386/400/189 465/401/190 279/372/163
f 386/400/189 119/394/65 287/397/187 465/401/190
f 465/401/190 287/397/187 84/380/171 286/402/191
f 279/372/163 465/401/190 286/402/191 78/373/164
f 106/403/192 338/404/193 466/405/194 332/406/195
f 338/404/193 105/407/196 295/408/197 466/405/194
f 466/405/194 295/408/197 86/409/198 293/410/199
f 332/406/195 466/405/194 293/410/199 88/411/200
f 112/375/166 342/374/165 467/412/201 346/413/202
f 342/374/165 78/373/164 286/402/191 467/412/201
f 467/412/201 286/402/191 84/380/171 343/377/168
f 346/413/202 467/412/201 343/377/168 113/376/167
f 110/357/148 340/356/147 468/414/203 345/415/204
f 340/356/147 76/355/146 284/416/205 468/414/203
f 468/414/203 284/416/205 82/362/153 344/359/150
f 345/415/204 468/414/203 344/359/150 114/358/149
f 121/417/206 385/418/207 469/419/208 291/420/209
f 385/418/207 122/421/210 294/422/211 469/419/208
f 469/419/208 294/422/211 88/411/200 293/410/199
f 291/420/209 469/419/208 293/410/199 86/409/198
f 132/423/212 368/424/213 470/425/214 384/426/215
f 368/424/213 106/403/192 332/406/195 470/425/214
f 470/425/214 332/406/195 88/411/200 294/422/211
f 384/426/215 470/425/214 294/422/211 122/421/210
f 108/427/216 336/428/217 471/429/218 334/430/219
f 336/428/217 107/431/220 333/432/221 471/429/218
f 471/429/218 333/432/221 87/433/222 292/434/223
f 334/430/219 471/429/218 292/434/223 85/435/224
f 131/436/225 367/437/226 472/438/227 383/439/228
f 367/437/226 108/427/216 334/430/219 472/438/227
f 472/438/227 334/430/219 85/435/224 357/440/229
f 383/439/228 472/438/227 357/440/229 121/441/206
f 124/442/230 382/443/231 473/444/232 302/445/233
f 382/443/231 123/393/184 359/392/183 473/444/232
f 473/444/232 359/392/183 89/391/182 300/446/234
f 302/445/233 473/444/232 300/446/234 91/447/235
f 104/448/236 329/449/237 474/450/238 326/451/239
f 329/449/237 103/452/240 325/453/241 474/450/238
f 474/450/238 325/453/241 90/454/242 301/455/243
f 326/451/239 474/450/238 301/455/243 92/456/244
f 101/389/180 328/457/245 475/458/246 303/390/181
f 328/457/245 102/459/247 306/460/248 475/458/246
f 475/458/246 306/460/248 91/447/235 300/446/234
f 303/390/181 475/458/246 300/446/234 89/391/182
f 129/461/249 365/462/250 476/463/251 381/464/252
f 365/462/250 104/448/236 326/451/239 476/463/251
f 476/463/251 326/451/239 92/456/244 360/465/253
f 381/464/252 476/463/251 360/465/253 124/466/230
f 120/467/254 356/468/255 477/469/256 380/470/257
f 356/468/255 81/471/258 305/472/259 477/469/256
f 477/469/256 305/472/259 95/473/260 361/474/261
f 380/470/257 477/469/256 361/474/261 125/475/262
f 77/476/263 281/477/264 478/478/265 307/479/266
f 281/477/264 83/480/267 310/481/268 478/478/265
f 478/478/265 310/481/268 96/482/269 312/483/270
f 307/479/266 478/478/265 312/483/270 93/484/271
f 81/471/258 283/485/272 479/486/273 305/472/259
f 283/485/272 79/487/274 304/488/275 479/486/273
f 479/486/273 304/488/275 94/489/276 313/490/277
f 305/472/259 479/486/273 313/490/277 95/473/260
f 117/491/278 353/492/279 480/493/280 379/494/281
f 353/492/279 77/476/263 307/479/266 480/493/280
f 480/493/280 307/479/266 93/484/271 362/495/282
f 379/494/281 480/493/280 362/495/282 126/496/283
f 115/497/284 351/498/285 481/499/286 378/500/287
f 351/498/285 75/501/288 298/502/289 481/499/286
f 481/499/286 298/502/289 100/503/290 363/504/291
f 378/500/287 481/499/286 363/504/291 127/505/292
f 75/501/288 275/506/293 482/507/294 298/502/289
f 275/506/293 81/471/258 297/508/295 482/507/294
f 482/507/294 297/508/295 99/509/296 320/510/297
f 298/502/289 482/507/294 320/510/297 100/503/290
f 120/511/254 288/512/298 483/513/299 377/514/300
f 288/512/298 83/480/267 296/515/301 483/513/299
f 483/513/299 296/515/301 98/516/302 364/517/303
f 377/514/300 483/513/299 364/517/303 128/518/304
f 83/480/267 285/519/305 484/520/306 296/515/301
f 285/519/305 73/521/307 315/522/308 484/520/306
f 484/520/306 315/522/308 97/523/309 322/524/310
f 296/515/301 484/520/306 322/524/310 98/516/302
f 125/475/262 361/474/261 485/525/311 376/526/312
f 361/474/261 95/473/260 309/527/313 485/525/311
f 485/525/311 309/527/313 104/448/236 365/462/250
f 376/526/312 485/525/311 365/462/250 129/461/249
f 93/484/271 312/483/270 486/528/314 323/529/315
f 312/483/270 96/482/269 324/530/316 486/528/314
f 486/528/314 324/530/316 102/459/247 328/457/245
f 323/529/315 486/528/314 328/457/245 101/389/180
f 95/473/260 313/490/277 487/531/317 309/527/313
f 313/490/277 94/489/276 308/532/318 487/531/317
f 487/531/317 308/532/318 103/452/240 329/449/237
f 309/527/313 487/531/317 329/449/237 104/448/236
f 126/496/283 362/495/282 488/533/319 375/534/320
f 362/495/282 93/484/271 323/529/315 488/533/319
f 488/533/319 323/529/315 101/389/180 366/386/177
f 375/534/320 488/533/319 366/386/177 130/385/176
f 127/505/292 363/504/291 489/535/321 374/536/322
f 363/504/291 100/503/290 318/537/323 489/535/321
f 489/535/321 318/537/323 108/427/216 367/437/226
f 374/536/322 489/535/321 367/437/226 131/436/225
f 100/503/290 320/510/297 490/538/324 318/537/323
f 320/510/297 99/509/296 317/539/325 490/538/324
f 490/538/324 317/539/325 107/431/220 336/428/217
f 318/537/323 490/538/324 336/428/217 108/427/216
f 128/518/304 364/517/303 491/540/326 373/541/327
f 364/517/303 98/516/302 316/542/328 491/540/326
f 491/540/326 316/542/328 106/403/192 368/424/213
f 373/541/327 491/540/326 368/424/213 132/423/212
f 98/516/302 322/524/310 492/543/329 316/542/328
f 322/524/310 97/523/309 331/544/330 492/543/329
f 492/543/329 331/544/330 105/407/196 338/404/193
f 316/542/328 492/543/329 338/404/193 106/403/192
f 75/501/288 274/545/331 493/546/332 275/506/293
f 274/545/331 110/357/148 345/415/204 493/546/332
f 493/546/332 345/415/204 114/358/149 290/547/333
f 275/506/293 493/546/332 290/547/333 81/471/258
f 77/476/263 280/548/334 494/549/335 281/477/264
f 280/548/334 112/375/166 346/413/202 494/549/335
f 494/549/335 346/413/202 113/376/167 289/550/336
f 281/477/264 494/549/335 289/550/336 83/480/267
f 83/480/267 289/550/336 495/551/337 285/519/305
f 289/550/336 113/376/167 347/379/170 495/551/337
f 495/551/337 347/379/170 109/384/175 339/552/338
f 285/519/305 495/551/337 339/552/338 73/521/307
f 117/491/278 372/553/339 496/554/340 353/492/279
f 372/553/339 133/367/158 348/370/161 496/554/340
f 496/554/340 348/370/161 112/375/166 280/548/334
f 353/492/279 496/554/340 280/548/334 77/476/263
f 81/471/258 290/547/333 497/555/341 283/485/272
f 290/547/333 114/358/149 349/361/152 497/555/341
f 497/555/341 349/361/152 111/366/157 277/556/342
f 283/485/272 497/555/341 277/556/342 79/487/274
f 115/497/284 371/557/343 498/558/344 351/498/285
f 371/557/343 134/349/140 350/352/143 498/558/344
f 498/558/344 350/352/143 110/357/148 274/545/331
f 351/498/285 498/558/344 274/545/331 75/501/288
f 73/521/307 339/552/338 499/559/345 271/560/346
f 339/552/338 109/384/175 370/561/347 499/559/345
f 499/559/345 370/561/347 134/562/140 371/563/343
f 271/560/346 499/559/345 371/563/343 115/564/284
f 79/487/274 277/556/342 500/565/348 278/566/349
f 277/556/342 111/366/157 369/567/350 500/565/348
f 500/565/348 369/567/350 133/568/158 372/569/339
f 278/566/349 500/565/348 372/569/339 117/570/278
f 99/509/296 321/571/351 501/572/352 317/539/325
f 321/571/351 128/573/304 373/574/327 501/572/352
f 501/572/352 373/574/327 132/575/212 337/576/353
f 317/539/325 501/572/352 337/576/353 107/431/220
f 97/523/309 319/577/354 502/578/355 331/544/330
f 319/577/354 127/579/292 374/580/322 502/578/355
f 502/578/355 374/580/322 131/581/225 335/582/356
f 331/544/330 502/578/355 335/582/356 105/407/196
f 94/489/276 314/583/357 503/584/358 308/532/318
f 314/583/357 126/585/283 375/586/320 503/584/358
f 503/584/358 375/586/320 130/587/176 330/588/359
f 308/532/318 503/584/358 330/588/359 103/452/240
f 96/482/269 311/589/360 504/590/361 324/530/316
f 311/589/360 125/591/262 376/592/312 504/590/361
f 504/590/361 376/592/312 129/593/249 327/594/362
f 324/530/316 504/590/361 327/594/362 102/459/247
f 81/471/258 356/468/255 505/595/363 297/508/295
f 356/468/255 120/467/254 377/596/300 505/595/363
f 505/595/363 377/596/300 128/573/304 321/571/351
f 297/508/295 505/595/363 321/571/351 99/509/296
f 73/521/307 271/560/346 506/597/364 315/522/308
f 271/560/346 115/564/284 378/598/287 506/597/364
f 506/597/364 378/598/287 127/579/292 319/577/354
f 315/522/308 506/597/364 319/577/354 97/523/309
f 79/487/274 278/566/349 507/599/365 304/488/275
f 278/566/349 117/570/278 379/600/281 507/599/365
f 507/599/365 379/600/281 126/585/283 314/583/357
f 304/488/275 507/599/365 314/583/357 94/489/276
f 83/480/267 288/512/298 508/601/366 310/481/268
f 288/512/298 120/511/254 380/602/257 508/601/366
f 508/601/366 380/602/257 125/591/262 311/589/360
f 310/481/268 508/601/366 311/589/360 96/482/269
f 102/459/247 327/594/362 509/603/367 306/460/248
f 327/594/362 129/593/249 381/604/252 509/603/367
f 509/603/367 381/604/252 124/442/230 302/445/233
f 306/460/248 509/603/367 302/445/233 91/447/235
f 92/456/244 301/455/243 510/605/368 360/465/253
f 301/455/243 90/454/242 299/606/369 510/605/368
f 510/605/368 299/606/369 123/607/184 382/608/231
f 360/465/253 510/605/368 382/608/231 124/466/230
f 105/407/196 335/582/356 511/609/370 295/408/197
f 335/582/356 131/581/225 383/610/228 511/609/370
f 511/609/370 383/610/228 121/417/206 291/420/209
f 295/408/197 511/609/370 291/420/209 86/409/198
f 107/431/220 337/576/353 512/611/371 333/432/221
f 337/576/353 132/575/212 384/612/215 512/611/371
f 512/611/371 384/612/215 122/613/210 358/614/372
f 333/432/221 512/611/371 358/614/372 87/433/222
f 85/435/224 292/434/223 513/615/373 357/440/229
f 292/434/223 87/433/222 358/614/372 513/615/373
f 513/615/373 358/614/372 122/613/210 385/616/207
f 357/440/229 513/615/373 385/616/207 121/441/206
f 80/364/155 276/363/154 514/617/374 354/618/375
f 276/363/154 82/362/153 355/619/376 514/617/374
f 514/617/374 355/619/376 119/620/65 386/621/189
f 354/618/375 514/617/374 386/621/189 118/622/162
f 82/362/153 284/416/205 515/623/377 355/619/376
f 284/416/205 76/355/146 273/354/145 515/623/377
f 515/623/377 273/354/145 116/353/144 387/624/185
f 355/619/376 515/623/377 387/624/185 119/620/65
f 103/452/240 330/588/359 516/625/378 325/453/241
f 330/588/359 130/587/176 388/626/179 516/625/378
f 516/625/378 388/626/179 123/607/184 299/606/369
f 325/453/241 516/625/378 299/606/369 90/454/242
f 111/366/157 341/365/156 517/627/379 369/567/350
f 341/365/156 80/364/155 354/618/375 517/627/379
f 517/627/379 354/618/375 118/622/162 389/628/159
f 369/567/350 517/627/379 389/628/159 133/568/158
f 109/384/175 272/383/174 518/629/380 370/561/347
f 272/383/174 74/382/173 352/399/188 518/629/380
f 518/629/380 352/399/188 116/398/144 390/630/141
f 370/561/347 518/629/380 390/630/141 134/562/140
